<svg version="1.1" xmlns="http://www.w3.org/2000/svg" xmlns:xlink="http://www.w3.org/1999/xlink" width="240" height="240" viewBox="0,0,240,240"><g transform="translate(-120,-60)"><g data-paper-data="{&quot;isPaintingLayer&quot;:true}" fill-rule="nonzero" stroke="#20444f" stroke-width="0" stroke-linecap="round" stroke-linejoin="round" stroke-miterlimit="10" stroke-dasharray="" stroke-dashoffset="0" style="mix-blend-mode: normal"><path d="M200,300c-44.18278,0 -80,-35.81722 -80,-80c0,-44.18278 35.81722,-80 80,-80c44.18278,0 80,35.81722 80,80c0,44.18278 -35.81722,80 -80,80z" fill="#4e7682"/><path d="M280,300c-44.18278,0 -80,-35.81722 -80,-80c0,-44.18278 35.81722,-80 80,-80c44.18278,0 80,35.81722 80,80c0,44.18278 -35.81722,80 -80,80z" fill="#4e7682"/><path d="M200,140c0,-44.18278 35.81722,-80 80,-80c44.18278,0 80,35.81722 80,80c0,44.18278 -35.81722,80 -80,80c-44.18278,0 -80,-35.81722 -80,-80z" fill="#4e7682"/><path d="M200,220c-44.18278,0 -80,-35.81722 -80,-80c0,-44.18278 35.81722,-80 80,-80c44.18278,0 80,35.81722 80,80c0,44.18278 -35.81722,80 -80,80z" fill="#20444f"/><path d="M360,220h-80v-80h80z" fill="#8daeb8"/><path d="M120,140h80v80h-80z" fill="#20444f"/><path d="M280,300h-80v-80h80z" fill="#8daeb8"/><path d="M200,60h80v80h-80z" fill="#20444f"/><path d="M280,220h-80v-80h80z" fill="#4e7682"/></g></g></svg>
